HIERARCHY
ROOT Hips
{
	OFFSET 0.000000 0.000000 0.000000
	CHANNELS 6 Xposition Yposition Zposition Xrotation Yrotation Zrotation
	JOINT LeftUpLeg_virtual
	{
		OFFSET 0.000000 0.000000 0.000000
		CHANNELS 3 Xrotation Yrotation Zrotation
		JOINT LeftUpLeg
		{
			OFFSET 15.427100 -6.655098 0.678600
			CHANNELS 3 Xrotation Yrotation Zrotation
			JOINT LeftLeg
			{
				OFFSET 4.081073 -39.591068 13.024000
				CHANNELS 3 Xrotation Yrotation Zrotation
				JOINT LeftFoot
				{
					OFFSET -4.081074 -37.707932 -15.979700
					CHANNELS 3 Xrotation Yrotation Zrotation
					JOINT LeftToeBase
					{
						OFFSET 5.346399 -15.068900 20.645000
						CHANNELS 3 Xrotation Yrotation Zrotation
						JOINT LeftToe_End
						{
							OFFSET 2.754700 0.931300 11.300900
							CHANNELS 3 Xrotation Yrotation Zrotation
							End Site
							{
								OFFSET 0 0 0
							}
						}
					}
				}
			}
		}
	}
	JOINT RightUpLeg_virtual
	{
		OFFSET 0.000000 0.000000 0.000000
		CHANNELS 3 Xrotation Yrotation Zrotation
		JOINT RightUpLeg
		{
			OFFSET -15.569500 -6.655098 0.678600
			CHANNELS 3 Xrotation Yrotation Zrotation
			JOINT RightLeg
			{
				OFFSET -4.081825 -39.591045 13.023800
				CHANNELS 3 Xrotation Yrotation Zrotation
				JOINT RightFoot
				{
					OFFSET 4.081824 -37.707954 -15.979600
					CHANNELS 3 Xrotation Yrotation Zrotation
					JOINT RightToeBase
					{
						OFFSET -5.346400 -15.068900 20.645000
						CHANNELS 3 Xrotation Yrotation Zrotation
						JOINT RightToe_End
						{
							OFFSET -2.754700 0.931300 11.300900
							CHANNELS 3 Xrotation Yrotation Zrotation
							End Site
							{
								OFFSET 0 0 0
							}
						}
					}
				}
			}
		}
	}
	JOINT Spine_virtual
	{
		OFFSET 0.000000 0.000000 0.000000
		CHANNELS 3 Xrotation Yrotation Zrotation
		JOINT Spine
		{
			OFFSET -0.279200 12.230698 -2.892100
			CHANNELS 3 Xrotation Yrotation Zrotation
			JOINT Spine1
			{
				OFFSET -0.232667 10.192268 -1.242267
				CHANNELS 3 Xrotation Yrotation Zrotation
				JOINT Spine1_split
				{
					OFFSET -0.232667 10.192268 -1.242267
					CHANNELS 3 Xrotation Yrotation Zrotation
					JOINT Spine2
					{
						OFFSET -0.232667 10.192268 -1.242267
						CHANNELS 3 Xrotation Yrotation Zrotation
						JOINT Neck_virtual
						{
							OFFSET 0.000000 0.000000 0.000000
							CHANNELS 3 Xrotation Yrotation Zrotation
							JOINT Neck
							{
								OFFSET -0.418800 17.814194 8.416900
								CHANNELS 3 Xrotation Yrotation Zrotation
								JOINT Head
								{
									OFFSET 0.000000 7.031097 3.806800
									CHANNELS 3 Xrotation Yrotation Zrotation
									JOINT HeadTop_End
									{
										OFFSET 0.000000 24.646606 12.978600
										CHANNELS 3 Xrotation Yrotation Zrotation
										End Site
										{
											OFFSET 0 0 0
										}
									}
								}
							}
						}
						JOINT LeftShoulder_virtual
						{
							OFFSET 0.000000 0.000000 0.000000
							CHANNELS 3 Xrotation Yrotation Zrotation
							JOINT LeftShoulder
							{
								OFFSET 8.476499 7.247704 -3.868750
								CHANNELS 3 Xrotation Yrotation Zrotation
								JOINT LeftShoulder_split
								{
									OFFSET 8.476499 7.247704 -3.868750
									CHANNELS 3 Xrotation Yrotation Zrotation
									JOINT LeftArm
									{
										OFFSET 9.308998 -2.777710 0.208600
										CHANNELS 3 Xrotation Yrotation Zrotation
										JOINT LeftForeArm
										{
											OFFSET 29.972298 0.000000 0.000000
											CHANNELS 3 Xrotation Yrotation Zrotation
											JOINT LeftHand
											{
												OFFSET 26.026505 0.000000 0.000000
												CHANNELS 3 Xrotation Yrotation Zrotation
												End Site
												{
													OFFSET 0 0 0
												}
											}
										}
									}
								}
							}
						}
						JOINT RightShoulder_virtual
						{
							OFFSET 0.000000 0.000000 0.000000
							CHANNELS 3 Xrotation Yrotation Zrotation
							JOINT RightShoulder
							{
								OFFSET -7.570500 7.247704 -3.868750
								CHANNELS 3 Xrotation Yrotation Zrotation
								JOINT RightShoulder_split
								{
									OFFSET -7.570500 7.247704 -3.868750
									CHANNELS 3 Xrotation Yrotation Zrotation
									JOINT RightArm
									{
										OFFSET -9.308998 -2.777710 0.208500
										CHANNELS 3 Xrotation Yrotation Zrotation
										JOINT RightForeArm
										{
											OFFSET -29.972300 0.000000 0.000000
											CHANNELS 3 Xrotation Yrotation Zrotation
											JOINT RightHand
											{
												OFFSET -26.026505 0.000000 0.000000
												CHANNELS 3 Xrotation Yrotation Zrotation
												End Site
												{
													OFFSET 0 0 0
												}
											}
										}
									}
								}
							}
						}
					}
				}
			}
		}
	}
}
MOTION
Frames: 10
Frame Time: 0.03333333
4.499670 94.214157 -13.090511 0.000000 0.000000 0.000000 -4.462276 5.257847 5.336165 -12.649436 21.719633 7.572432 11.752530 2.011130 -0.089298 7.386542 5.828828 -8.093451 -0.705467 -2.879319 3.380639 0.000000 0.000000 0.000000 -3.498636 4.680879 5.128605 9.302893 -12.583855 -6.040947 12.761058 1.246932 2.145589 -20.988256 -15.629882 14.341085 0.708494 4.487925 -6.794411 0.000000 0.000000 0.000000 -5.759453 8.329408 5.006833 4.026760 -2.617252 -0.731463 3.344229 0.928503 -1.024806 0.108254 0.132587 -0.054503 0.000000 0.000000 0.000000 4.090333 3.274608 -0.904865 3.472648 7.225667 0.461211 -16.936158 -8.068089 -13.458819 0.000000 0.000000 0.000000 2.273344 1.830282 -1.819759 -1.590440 -15.289643 -17.183054 -0.018388 -4.259869 -0.524461 5.682953 3.139383 -31.630691 11.512966 -80.372120 10.566506 0.000000 0.000000 0.000000 3.205007 2.062750 -0.858298 -6.088101 17.817389 11.903971 1.209846 -4.880975 6.283306 19.460466 28.992507 35.899000 -162.236063 78.096765 163.715045 0.000000 0.000000 0.000000 
4.838173 94.106125 -13.075336 0.000000 0.000000 0.000000 -4.469896 4.869402 5.323048 -12.684186 21.559835 7.514873 12.045897 1.947268 -0.112487 7.310846 5.925978 -8.265679 -0.747611 -2.869629 3.318666 0.000000 0.000000 0.000000 -3.549508 4.688152 5.094532 9.215775 -12.971175 -6.119907 12.954681 1.465645 2.038730 -20.860236 -15.656725 14.514620 0.853300 4.413904 -6.780258 0.000000 0.000000 0.000000 -5.804238 8.011726 4.938420 4.126268 -2.644142 -0.751294 3.339861 0.878633 -1.006253 0.120719 0.152759 -0.051606 0.000000 0.000000 0.000000 4.061737 3.231986 -0.879316 3.546012 7.334728 0.297419 -16.752111 -7.600223 -13.389595 0.000000 0.000000 0.000000 2.246637 1.777849 -1.807123 -1.583220 -15.303281 -17.139866 0.100756 -4.204606 -0.531568 5.774801 3.391332 -31.764625 11.948833 -80.363138 11.002664 0.000000 0.000000 0.000000 3.170608 2.028819 -0.822455 -6.141432 17.872124 11.962124 1.189833 -4.748870 6.582898 19.508325 29.072960 36.115336 -161.877314 78.215816 163.317937 0.000000 0.000000 0.000000 
5.255148 93.820404 -13.021965 0.000000 0.000000 0.000000 -4.506502 4.429438 5.301050 -13.019441 21.263127 7.556582 12.970154 1.865927 -0.109092 7.038387 6.153947 -8.577444 -0.941077 -2.811060 3.134382 0.000000 0.000000 0.000000 -3.586544 4.634436 5.049474 8.906787 -13.279340 -6.203318 13.624312 1.745574 1.798788 -21.066089 -15.880487 14.457101 1.161148 4.321856 -6.767035 0.000000 0.000000 0.000000 -5.793798 7.632246 4.851826 4.218646 -2.724755 -0.763168 3.326856 0.792608 -0.960797 0.128633 0.165143 -0.050616 0.000000 0.000000 0.000000 4.035158 3.155700 -0.829704 3.664122 7.519237 0.053116 -16.537850 -6.759440 -13.275827 0.000000 0.000000 0.000000 2.229118 1.689641 -1.763396 -1.578031 -15.348299 -17.067362 0.264889 -4.208295 -0.477117 6.112924 3.953439 -31.916449 12.574143 -80.523463 11.627210 0.000000 0.000000 0.000000 3.146771 1.953858 -0.758452 -6.212008 17.867633 12.038088 1.233377 -4.631767 6.705749 19.455411 29.433140 36.378175 -160.952752 78.415681 162.360864 0.000000 0.000000 0.000000 
5.690388 93.394524 -12.971157 0.000000 0.000000 0.000000 -4.571186 4.036479 5.278253 -13.569068 20.857639 7.629835 14.289494 1.786156 -0.086375 6.535273 6.498991 -9.014727 -1.203873 -2.703593 2.902587 0.000000 0.000000 0.000000 -3.628807 4.410812 5.017693 8.338566 -13.463232 -6.316442 14.721120 2.123297 1.467646 -21.445105 -16.244685 14.309461 1.486924 4.223609 -6.767997 0.000000 0.000000 0.000000 -5.729550 7.248520 4.766073 4.288499 -2.852874 -0.779486 3.296702 0.680050 -0.896569 0.121921 0.178718 -0.049690 0.000000 0.000000 0.000000 4.012768 3.053985 -0.763879 3.817883 7.755369 -0.241720 -16.349292 -5.588552 -13.123717 0.000000 0.000000 0.000000 2.224350 1.575128 -1.691974 -1.572925 -15.427379 -16.964901 0.417446 -4.267589 -0.432757 6.634738 4.802075 -32.066430 13.373346 -80.843307 12.429148 0.000000 0.000000 0.000000 3.126636 1.844051 -0.672822 -6.282458 17.814347 12.110695 1.326022 -4.614364 6.681732 19.299468 29.950909 36.671795 -159.514451 78.657381 160.894586 0.000000 0.000000 0.000000 
6.114752 92.899017 -12.988811 0.000000 0.000000 0.000000 -4.653606 3.711838 5.249140 -14.197867 20.314311 7.642997 15.777073 1.686165 -0.046276 5.897850 6.948923 -9.615711 -1.445170 -2.555273 2.702733 0.000000 0.000000 0.000000 -3.685223 4.019881 5.006012 7.508599 -13.481419 -6.501952 16.111451 2.678070 1.065670 -21.782778 -16.677198 14.343020 1.561542 4.131661 -6.786976 0.000000 0.000000 0.000000 -5.591102 6.805364 4.694133 4.331549 -3.023099 -0.808415 3.248321 0.550837 -0.821852 0.110017 0.193037 -0.048942 0.000000 0.000000 0.000000 3.994506 2.935245 -0.689252 3.980686 8.014102 -0.554178 -16.232091 -4.209721 -12.931799 0.000000 0.000000 0.000000 2.236927 1.444328 -1.601023 -1.566689 -15.532817 -16.848159 0.581785 -4.361589 -0.388191 7.278566 5.906838 -32.205155 14.379840 -81.296832 13.436847 0.000000 0.000000 0.000000 3.110365 1.711293 -0.576486 -6.347721 17.749973 12.168404 1.484303 -4.599306 6.601196 19.063775 30.498926 37.016992 -157.665341 78.902502 159.022418 0.000000 0.000000 0.000000 
6.500562 92.410820 -13.115021 0.000000 0.000000 0.000000 -4.715079 3.463806 5.213559 -14.778808 19.657899 7.516653 17.239000 1.597113 0.001321 5.185356 7.519522 -10.284400 -1.572132 -2.377798 2.559359 0.000000 0.000000 0.000000 -3.751182 3.521242 5.002534 6.490168 -13.346668 -6.749813 17.677361 3.443711 0.589392 -22.019719 -17.105703 14.665024 1.425217 4.040214 -6.822332 0.000000 0.000000 0.000000 -5.376258 6.302459 4.635183 4.357519 -3.230766 -0.855486 3.183904 0.413454 -0.745450 0.097968 0.209948 -0.039699 0.000000 0.000000 0.000000 3.979699 2.810957 -0.612138 4.123097 8.277435 -0.860802 -16.204033 -2.726790 -12.698229 0.000000 0.000000 0.000000 2.267524 1.304685 -1.497600 -1.559494 -15.641202 -16.731599 0.724720 -4.466049 -0.355884 7.979586 7.166626 -32.317532 15.586323 -81.844982 14.638982 0.000000 0.000000 0.000000 3.091466 1.564672 -0.480504 -6.404457 17.715586 12.197371 1.755737 -4.539244 6.500060 18.785675 30.976370 37.417637 -155.593471 79.109464 156.932093 0.000000 0.000000 0.000000 
6.853162 91.975586 -13.319885 0.000000 0.000000 0.000000 -4.756061 3.247901 5.179468 -15.210964 18.928199 7.231779 18.514928 1.606080 0.081795 4.457525 8.244472 -10.838325 -1.626192 -2.190655 2.513395 0.000000 0.000000 0.000000 -3.806061 2.891590 4.991971 5.410577 -13.153655 -7.010452 19.274719 4.333601 0.041025 -22.312865 -17.499191 15.064238 1.490778 3.922526 -6.854758 0.000000 0.000000 0.000000 -5.114858 5.733672 4.580274 4.392125 -3.469629 -0.927538 3.108526 0.274565 -0.672858 0.088440 0.224644 -0.031129 0.000000 0.000000 0.000000 3.964940 2.682195 -0.535472 4.232737 8.538501 -1.145225 -16.251452 -1.258569 -12.410472 0.000000 0.000000 0.000000 2.315445 1.159937 -1.390561 -1.553549 -15.734637 -16.630358 0.845225 -4.582308 -0.310109 8.701912 8.488115 -32.392466 17.119120 -82.473605 16.152279 0.000000 0.000000 0.000000 3.070724 1.409978 -0.393604 -6.450122 17.742274 12.200012 2.077837 -4.486221 6.468378 18.508522 31.328541 37.866360 -153.451278 79.277562 154.771854 0.000000 0.000000 0.000000 
7.162523 91.612808 -13.580658 0.000000 0.000000 0.000000 -4.775060 2.913155 5.149250 -15.463692 18.138513 6.835696 19.559244 1.763493 0.208452 3.869060 9.116008 -11.193651 -1.595192 -2.006300 2.511990 0.000000 0.000000 0.000000 -3.833074 2.224388 4.986216 4.350039 -13.065699 -7.271657 20.699768 5.228112 -0.561384 -22.769561 -17.870445 15.349013 1.930273 3.763239 -6.884444 0.000000 0.000000 0.000000 -4.852922 5.036776 4.528719 4.454833 -3.732622 -1.034816 3.021830 0.137556 -0.608440 0.083092 0.232645 -0.030282 0.000000 0.000000 0.000000 3.940989 2.550574 -0.460371 4.305128 8.781651 -1.404618 -16.374728 0.111756 -12.065531 0.000000 0.000000 0.000000 2.375409 1.015146 -1.285877 -1.547165 -15.793395 -16.554133 0.971902 -4.712272 -0.264461 9.424561 9.787467 -32.409579 19.083701 -83.157539 18.075443 0.000000 0.000000 0.000000 3.055734 1.254801 -0.317526 -6.489593 17.841813 12.185593 2.359273 -4.408576 6.582147 18.287468 31.553053 38.315828 -151.421114 79.412028 152.718208 0.000000 0.000000 0.000000 
7.426337 91.326218 -13.867073 0.000000 0.000000 0.000000 -4.797040 2.394047 5.136999 -15.562900 17.309591 6.389211 20.328055 2.086907 0.378549 3.481455 10.065196 -11.306111 -1.484796 -1.831793 2.501382 0.000000 0.000000 0.000000 -3.861159 1.533936 4.998411 3.352054 -13.256941 -7.568073 21.851845 6.064682 -1.144457 -23.229588 -18.242636 15.594908 2.487200 3.579600 -6.963297 0.000000 0.000000 0.000000 -4.610398 4.213618 4.482907 4.563581 -4.015786 -1.185571 2.924626 0.007598 -0.555053 0.080714 0.236219 -0.031156 0.000000 0.000000 0.000000 3.901277 2.417914 -0.383283 4.345707 8.989331 -1.636313 -16.574518 1.335607 -11.644693 0.000000 0.000000 0.000000 2.439491 0.874333 -1.183378 -1.536480 -15.797237 -16.496626 1.065678 -4.877563 -0.265519 10.119016 11.029828 -32.360965 21.426160 -83.833018 20.357447 0.000000 0.000000 0.000000 3.045627 1.101811 -0.252658 -6.523259 17.995219 12.157246 2.540884 -4.308956 6.826775 18.130220 31.674551 38.729232 -149.661862 79.514426 150.929627 0.000000 0.000000 0.000000 
7.632959 91.109009 -14.213200 0.000000 0.000000 0.000000 -4.831106 1.708247 5.156965 -15.557918 16.493565 5.961754 20.812140 2.498227 0.587679 3.341535 10.981587 -11.303587 -1.368999 -1.675247 2.504262 0.000000 0.000000 0.000000 -3.891991 0.744243 5.036386 2.460990 -13.855517 -7.908210 22.707758 6.816486 -1.661012 -23.456990 -18.681034 15.945433 2.820262 3.397438 -7.165411 0.000000 0.000000 0.000000 -4.403206 3.302546 4.456598 4.721228 -4.314949 -1.376268 2.813980 -0.116455 -0.507486 0.081183 0.234204 -0.033499 0.000000 0.000000 0.000000 3.845536 2.284871 -0.303044 4.362327 9.162145 -1.843017 -16.856750 2.367710 -11.124536 0.000000 0.000000 0.000000 2.497242 0.742496 -1.080605 -1.517397 -15.732034 -16.442758 1.149765 -5.060076 -0.282123 10.761779 12.210356 -32.275752 24.300707 -84.475329 23.150795 0.000000 0.000000 0.000000 3.036281 0.949391 -0.198179 -6.549764 18.165306 12.121681 2.634050 -4.174542 7.092912 17.969668 31.716946 39.141212 -148.183509 79.608341 149.418325 0.000000 0.000000 0.000000 
